<?xml version="1.0" standalone="no"?>
<!DOCTYPE svg PUBLIC "-//W3C//DTD SVG 20010904//EN"
 "http://www.w3.org/TR/2001/REC-SVG-20010904/DTD/svg10.dtd">
<svg version="1.0" xmlns="http://www.w3.org/2000/svg"
 width="1280.000000pt" height="1280.000000pt" viewBox="0 0 1280.000000 1280.000000"
 preserveAspectRatio="xMidYMid meet">
<metadata>
Created by potrace 1.15, written by Peter Selinger 2001-2017
</metadata>
<g transform="translate(0.000000,1280.000000) scale(0.100000,-0.100000)"
fill="#ffffff" stroke="none">
<path d="M6245 12793 c-1309 -33 -2595 -471 -3625 -1231 -1103 -815 -1931
-1977 -2335 -3277 -362 -1166 -372 -2455 -30 -3656 218 -762 562 -1453 1035
-2078 890 -1174 2188 -2029 3600 -2370 967 -233 2017 -233 3000 0 1694 403
3114 1455 4023 2979 115 193 297 553 385 761 607 1434 659 3059 147 4568 -407
1199 -1175 2250 -2210 3026 -949 711 -2045 1139 -3200 1250 -157 15 -586 36
-655 33 -19 -1 -80 -3 -135 -5z m650 -1148 c659 -62 1233 -225 1820 -515 525
-260 952 -563 1369 -970 438 -428 758 -863 1023 -1390 66 -131 89 -186 80
-191 -19 -11 -346 -76 -492 -98 -575 -88 -979 -99 -1475 -41 -460 54 -726 71
-1195 77 -627 8 -1010 -19 -1453 -103 -264 -49 -432 -99 -699 -205 -486 -193
-839 -281 -1208 -299 -201 -10 -250 -16 -386 -49 -260 -61 -540 -203 -769
-388 -109 -88 -296 -283 -376 -393 -383 -520 -504 -1110 -333 -1624 61 -183
135 -326 215 -415 55 -61 89 -81 141 -81 81 0 133 60 189 215 37 104 72 147
154 186 739 354 4284 -548 6605 -1680 237 -116 567 -290 589 -311 10 -10 -114
-179 -266 -363 -133 -160 -500 -526 -658 -657 -499 -413 -1029 -715 -1611
-916 -1114 -385 -2290 -402 -3384 -47 -525 170 -1066 451 -1523 792 -352 262
-717 616 -992 962 -953 1196 -1333 2816 -1019 4339 133 642 398 1270 775 1838
198 297 390 529 673 813 282 282 525 483 814 672 783 513 1650 796 2627 857
181 11 567 4 765 -15z"/>
</g>
</svg>
